<svg width="26" height="26" viewBox="0 0 26 26" fill="none" xmlns="http://www.w3.org/2000/svg">
<g clip-path="url(#clip0_486_177)">
<path d="M24.41 21.0255C23.8623 20.2233 23.0985 19.6664 22.2012 19.4151C22.1925 19.4126 22.1836 19.4105 22.1748 19.4086L18.9342 18.7308L18.0619 17.4081C18.0574 17.4013 18.0527 17.3946 18.0478 17.388C17.9156 17.2118 17.7144 17.0955 17.4957 17.069C17.277 17.0425 17.0539 17.1072 16.8834 17.2467C16.8807 17.2488 16.8781 17.251 16.8756 17.2532L13.0001 20.5892L9.12466 17.2532C9.12207 17.251 9.11948 17.2488 9.11689 17.2467C8.94639 17.1071 8.72303 17.0424 8.50454 17.069C8.28585 17.0955 8.08462 17.2118 7.95245 17.388C7.94753 17.3946 7.9428 17.4013 7.93834 17.4081L7.06606 18.7308L3.8255 19.4086C3.81661 19.4105 3.80778 19.4126 3.79904 19.4151C2.90173 19.6664 2.13796 20.2233 1.5903 21.0255C1.08934 21.7592 0.813477 22.6448 0.813477 23.519V24.5265C0.813477 25.3389 1.54236 25.9999 2.43835 25.9999H11.7803C11.7808 25.9999 11.7814 25.9999 11.7819 25.9999C11.7824 25.9999 11.783 25.9999 11.7835 25.9999H14.2166C14.2172 25.9999 14.2177 25.9999 14.2183 25.9999C14.2188 25.9999 14.2193 25.9999 14.2198 25.9999H23.5618C24.4578 25.9999 25.1867 25.3389 25.1867 24.5265V23.519C25.1868 22.6448 24.9109 21.7592 24.41 21.0255ZM17.3974 17.876L18.1932 19.0828L15.3886 22.9392L14.5062 22.0569C14.5061 22.0568 14.506 22.0567 14.5059 22.0566L13.5969 21.1476L17.3974 17.876ZM12.5939 23.9688H13.4064C13.4308 23.9688 13.455 23.9678 13.4791 23.9664L13.7233 25.1875H12.277L12.5212 23.9664C12.5453 23.9678 12.5695 23.9688 12.5939 23.9688ZM13.8126 22.7501C13.8126 22.9741 13.6304 23.1563 13.4064 23.1563H12.5939C12.3699 23.1563 12.1877 22.9741 12.1877 22.7501V22.5121L13.0002 21.6997L13.8126 22.5121L13.8126 22.7501ZM8.60294 17.876L12.4034 21.1475L11.4944 22.0565C11.4943 22.0566 11.4942 22.0567 11.4941 22.0568L10.6117 22.9391L7.80708 19.0828L8.60294 17.876ZM1.62589 24.5265V23.519C1.62589 22.2049 2.44323 20.6457 4.00555 20.2009L7.13902 19.5454L10.2343 23.8014C10.3041 23.8975 10.4125 23.9582 10.531 23.9675C10.5416 23.9683 10.5522 23.9687 10.5628 23.9687C10.6701 23.9687 10.7735 23.9262 10.85 23.8497L11.4726 23.2271C11.5391 23.3828 11.6372 23.5217 11.7587 23.6362L11.4484 25.1874H2.43835C1.99041 25.1874 1.62589 24.891 1.62589 24.5265ZM24.3744 24.5265C24.3744 24.891 24.0099 25.1874 23.5619 25.1874H14.5518L14.2416 23.6363C14.363 23.5218 14.4612 23.3828 14.5277 23.2271L15.1503 23.8498C15.2267 23.9262 15.3302 23.9687 15.4375 23.9687C15.448 23.9687 15.4586 23.9683 15.4693 23.9675C15.5877 23.9582 15.6961 23.8975 15.766 23.8015L18.8612 19.5455L21.9947 20.2009C23.5571 20.6458 24.3744 22.205 24.3744 23.5191V24.5265Z" fill="#444444"/>
<path d="M6.09415 12.9319V17.8764C6.09415 18.1008 6.27603 18.2826 6.50036 18.2826C6.72468 18.2826 6.90656 18.1008 6.90656 17.8764V13.0018H7.27875C7.58021 13.9525 8.05085 14.8464 8.66468 15.6066C9.84613 17.0697 11.3872 17.8755 13.0039 17.8755C14.256 17.8755 15.4712 17.3884 16.5181 16.4669C16.5231 16.4625 16.5276 16.4577 16.5323 16.4531C16.5973 16.4574 16.6625 16.4602 16.7279 16.4602C17.2025 16.4602 17.6852 16.3478 18.1545 16.1206C19.6879 15.3784 20.7181 13.6353 20.7181 11.7832V9.3458C20.7181 8.67384 20.1714 8.12713 19.4995 8.12713H19.3333C20.2335 4.69443 19.8257 1.87633 19.4651 1.05681C19.4645 1.05538 19.4637 1.05411 19.463 1.05269C19.4594 1.04477 19.4554 1.03716 19.4514 1.02954C19.449 1.02507 19.4467 1.02045 19.4442 1.01608C19.4403 1.00948 19.4361 1.00309 19.4319 0.996738C19.4285 0.991661 19.4253 0.986532 19.4218 0.981658C19.4182 0.976682 19.4143 0.97201 19.4105 0.967238C19.4058 0.961449 19.4013 0.95561 19.3963 0.950075C19.3932 0.946623 19.3899 0.943373 19.3867 0.940022C19.3807 0.933776 19.3748 0.927531 19.3684 0.921692C19.3656 0.919102 19.3626 0.916766 19.3597 0.914278C19.3528 0.908236 19.3458 0.902245 19.3385 0.896659C19.3353 0.894273 19.3319 0.89214 19.3287 0.889804C19.3214 0.884625 19.3141 0.879497 19.3065 0.874826C19.3024 0.872287 19.298 0.870053 19.2938 0.867666C19.2869 0.863706 19.28 0.859745 19.2729 0.856191C19.2675 0.85355 19.2619 0.851316 19.2565 0.84893C19.2502 0.846137 19.2439 0.843243 19.2375 0.840755C19.2313 0.838419 19.225 0.836541 19.2187 0.834459C19.2126 0.832479 19.2065 0.830346 19.2003 0.82862C19.1941 0.826893 19.1878 0.825675 19.1814 0.824253C19.1748 0.82278 19.1683 0.821156 19.1616 0.820038C19.1559 0.819074 19.1502 0.818515 19.1445 0.817804C19.1368 0.816789 19.1292 0.815773 19.1215 0.815266C19.1167 0.814961 19.1119 0.814961 19.1071 0.814758C19.0983 0.814453 19.0895 0.81425 19.0806 0.814504C19.0764 0.814606 19.0722 0.815062 19.068 0.815316C19.0586 0.815926 19.0493 0.816637 19.0399 0.817855C19.0386 0.818058 19.0372 0.818058 19.0358 0.818261C18.0172 0.963785 16.7838 0.7161 15.4781 0.453945C13.2887 0.0143281 11.0265 -0.438795 9.25769 0.822577C9.23108 0.817094 9.20356 0.814199 9.17533 0.814199C7.36116 0.814199 6.09415 2.31757 6.09415 4.47016C6.09415 5.46689 6.34534 6.98041 6.56814 8.12708H6.50036C5.82839 8.12708 5.28174 8.67379 5.28174 9.34575V11.7831C5.28174 12.3127 5.62138 12.7642 6.09415 12.9319ZM17.8005 15.3893C16.9433 15.8042 16.0641 15.7181 15.3196 15.1485C15.395 14.9902 15.4373 14.8133 15.4373 14.6267C15.4373 13.9547 14.8905 13.408 14.2186 13.408C13.5467 13.408 13 13.9547 13 14.6267C13 15.2987 13.5467 15.8453 14.2186 15.8453C14.4066 15.8453 14.5848 15.8025 14.7439 15.7261C14.7549 15.7372 14.7665 15.7478 14.779 15.7577C15.0185 15.9471 15.2717 16.0979 15.5339 16.211C14.7494 16.7695 13.8846 17.0631 13.004 17.0631C11.6375 17.0631 10.321 16.3645 9.29683 15.0962C8.28599 13.8443 7.70623 12.1876 7.70623 10.5507V10.088C7.70623 8.64103 8.52682 6.68703 8.80578 6.06467C11.6125 5.73488 13.8483 6.06437 15.2427 6.40502C16.4659 6.70389 17.2685 7.06175 17.5579 7.20225L18.2904 8.94538V10.554C18.2904 11.8975 17.8997 13.2679 17.1901 14.4129C17.072 14.6035 17.1308 14.854 17.3214 14.9721C17.3881 15.0134 17.462 15.0331 17.5351 15.0331C17.671 15.0331 17.8039 14.9649 17.8807 14.8408C18.2345 14.2699 18.5163 13.6484 18.7201 13.0018H19.4996C19.578 13.0018 19.6547 12.9941 19.7291 12.9798C19.4156 14.036 18.7087 14.9498 17.8005 15.3893ZM14.6248 14.6267C14.6248 14.8507 14.4426 15.0329 14.2186 15.0329C13.9947 15.0329 13.8124 14.8507 13.8124 14.6267C13.8124 14.4027 13.9947 14.2204 14.2186 14.2204C14.4426 14.2204 14.6248 14.4027 14.6248 14.6267ZM19.9057 9.3458V11.7831C19.9057 12.0071 19.7235 12.1893 19.4995 12.1893H18.9321C19.0442 11.6493 19.1029 11.0997 19.1029 10.5539V8.93955H19.4995C19.7235 8.93955 19.9057 9.12178 19.9057 9.3458ZM9.17533 1.62661C9.21453 1.62661 9.25236 1.62077 9.2882 1.61036C9.40712 1.64443 9.53995 1.62443 9.64602 1.54385C11.1375 0.410938 13.2628 0.837759 15.3181 1.25046C16.3965 1.46702 17.4277 1.67409 18.3802 1.67409C18.527 1.67409 18.6717 1.66855 18.8146 1.65799C19.0645 2.55952 19.3013 4.8327 18.6202 7.63334L18.249 6.75009C18.2136 6.66591 18.1509 6.59609 18.0709 6.55191C17.9211 6.46915 14.333 4.53287 8.4796 5.28592C8.47863 5.28602 8.47772 5.28633 8.47675 5.28643C8.46899 5.2875 8.46132 5.28907 8.4536 5.29059C8.44786 5.29171 8.44202 5.29262 8.43639 5.29394C8.43136 5.29516 8.42644 5.29684 8.42141 5.29821C8.37505 5.31121 8.3322 5.33167 8.29457 5.35873C8.29442 5.35884 8.29422 5.35894 8.29401 5.35909C8.29076 5.36143 8.28782 5.36412 8.28467 5.3665C8.25801 5.38692 8.23354 5.41063 8.21226 5.43774C8.21145 5.43876 8.21059 5.43967 8.20983 5.44064C8.20561 5.44607 8.20191 5.45196 8.19794 5.45759C8.19419 5.46303 8.19023 5.46831 8.18672 5.47394C8.18418 5.47806 8.18195 5.48242 8.17956 5.48664C8.17515 5.49426 8.17078 5.50192 8.16687 5.50984C8.16651 5.5106 8.16606 5.51126 8.1657 5.51203C8.13427 5.57712 7.6745 6.53683 7.31668 7.71042C7.11434 6.63702 6.90656 5.32614 6.90656 4.47011C6.90656 2.50585 8.04607 1.62661 9.17533 1.62661ZM6.09415 9.3458C6.09415 9.12178 6.27639 8.93955 6.50036 8.93955H6.73301C6.80968 9.30234 6.86955 9.56637 6.89377 9.67173V10.5507C6.89377 11.0991 6.95282 11.6497 7.06559 12.1893H6.50036C6.27633 12.1893 6.09415 12.0071 6.09415 11.7831V9.3458Z" fill="#444444"/>
</g>
<defs>
<clipPath id="clip0_486_177">
<rect width="26" height="26" fill="white"/>
</clipPath>
</defs>
</svg>
