<svg width="30" height="30" viewBox="0 0 30 30" fill="none" xmlns="http://www.w3.org/2000/svg">
<g clip-path="url(#clip0_486_17)">
<path d="M18.1294 1.62L15 0L11.8706 1.62L8.38689 2.14875L6.80814 5.29875L4.30127 7.77375L4.87502 11.25L4.30127 14.7262L6.80814 17.2013L8.38689 20.3512L11.8706 20.88L15 22.5L18.1294 20.88L21.6131 20.3512L23.1919 17.2013L25.6988 14.7262L25.125 11.25L25.6988 7.77375L23.1919 5.29875L21.6131 2.14875L18.1294 1.62ZM20.3719 3.85687L21.6544 6.41625L23.6906 8.42625L23.2256 11.25L23.6906 14.0738L21.6544 16.0837L20.3719 18.6431L17.5406 19.0725L15 20.3888L12.4594 19.0725L9.62815 18.6431L8.34564 16.0837L6.30939 14.0738L6.77627 11.25L6.30752 8.42625L8.34564 6.41625L9.62815 3.85687L12.4594 3.4275L15 2.11125L17.5425 3.4275L20.3719 3.85687Z" fill="#444444"/>
<path d="M7.5 22.1138V30L15 28.125L22.5 30V22.1138L18.7163 22.6875L15 24.6113L11.2838 22.6875L7.5 22.1138Z" fill="#444444"/>
</g>
<defs>
<clipPath id="clip0_486_17">
<rect width="30" height="30" fill="white"/>
</clipPath>
</defs>
</svg>
