<svg width="30" height="30" viewBox="0 0 30 30" fill="none" xmlns="http://www.w3.org/2000/svg">
<path d="M14.7001 7.6875C14.7275 7.63127 14.7701 7.58388 14.8232 7.55073C14.8762 7.51758 14.9375 7.5 15.0001 7.5C15.0626 7.5 15.1239 7.51758 15.177 7.55073C15.23 7.58388 15.2727 7.63127 15.3001 7.6875L16.4888 10.0969C16.5126 10.1456 16.5479 10.1878 16.5917 10.2198C16.6355 10.2519 16.6864 10.2727 16.7401 10.2806L19.4026 10.6669C19.6744 10.7062 19.7851 11.0419 19.5863 11.235L17.6626 13.1119C17.6238 13.1498 17.5948 13.1965 17.5781 13.2482C17.5614 13.2998 17.5576 13.3547 17.5669 13.4081L18.0207 16.0594C18.0309 16.1206 18.0238 16.1834 18.0002 16.2409C17.9767 16.2983 17.9376 16.348 17.8873 16.3844C17.8371 16.4208 17.7777 16.4425 17.7158 16.447C17.6539 16.4516 17.5919 16.4387 17.5369 16.41L15.1557 15.1575C15.108 15.1325 15.0549 15.1195 15.001 15.1195C14.9471 15.1195 14.8941 15.1325 14.8463 15.1575L12.4651 16.41C12.4101 16.4382 12.3484 16.4506 12.2868 16.4459C12.2252 16.4411 12.1662 16.4193 12.1162 16.383C12.0663 16.3466 12.0274 16.2971 12.0039 16.24C11.9804 16.1829 11.9732 16.1203 11.9832 16.0594L12.4369 13.4081C12.4465 13.3548 12.443 13.3 12.4266 13.2484C12.4103 13.1968 12.3817 13.1499 12.3432 13.1119L10.4119 11.235C10.3677 11.1916 10.3364 11.1367 10.3216 11.0765C10.3069 11.0163 10.3091 10.9531 10.3282 10.8941C10.3473 10.8352 10.3824 10.7826 10.4297 10.7425C10.4769 10.7024 10.5344 10.6762 10.5957 10.6669L13.2582 10.2806C13.3118 10.2727 13.3628 10.2519 13.4065 10.2198C13.4503 10.1878 13.4856 10.1456 13.5094 10.0969L14.7001 7.6875Z" fill="#444444"/>
<path d="M3.75 3.75C3.75 2.75544 4.14509 1.80161 4.84835 1.09835C5.55161 0.395088 6.50544 0 7.5 0L22.5 0C23.4946 0 24.4484 0.395088 25.1516 1.09835C25.8549 1.80161 26.25 2.75544 26.25 3.75V29.0625C26.2499 29.2321 26.2038 29.3985 26.1167 29.5439C26.0295 29.6894 25.9045 29.8085 25.755 29.8885C25.6055 29.9686 25.4371 30.0065 25.2677 29.9984C25.0983 29.9903 24.9343 29.9364 24.7931 29.8425L15 24.5644L5.20687 29.8425C5.0657 29.9364 4.90168 29.9903 4.7323 29.9984C4.56291 30.0065 4.3945 29.9686 4.245 29.8885C4.0955 29.8085 3.97051 29.6894 3.88334 29.5439C3.79617 29.3985 3.75009 29.2321 3.75 29.0625V3.75ZM7.5 1.875C7.00272 1.875 6.52581 2.07254 6.17417 2.42417C5.82254 2.77581 5.625 3.25272 5.625 3.75V27.3112L14.4806 22.6575C14.6345 22.5551 14.8152 22.5005 15 22.5005C15.1848 22.5005 15.3655 22.5551 15.5194 22.6575L24.375 27.3112V3.75C24.375 3.25272 24.1775 2.77581 23.8258 2.42417C23.4742 2.07254 22.9973 1.875 22.5 1.875H7.5Z" fill="#444444"/>
</svg>
