<svg width="30" height="30" viewBox="0 0 30 30" fill="none" xmlns="http://www.w3.org/2000/svg">
<g clip-path="url(#clip0_486_11)">
<path d="M10.3125 17.8331C10.455 19.6219 11.8688 21.015 14.4038 21.18V22.5H15.5287V21.1706C18.1537 20.9869 19.6875 19.5844 19.6875 17.5481C19.6875 15.6975 18.5138 14.7431 16.4156 14.2481L15.5287 14.0381V10.4438C16.6537 10.5713 17.37 11.1863 17.5425 12.0375H19.515C19.3725 10.3144 17.895 8.96625 15.5287 8.82V7.5H14.4038V8.84812C12.1631 9.0675 10.635 10.4156 10.635 12.3225C10.635 14.01 11.7712 15.0825 13.6594 15.5231L14.4038 15.7069V19.5206C13.2506 19.3463 12.4875 18.7144 12.315 17.8331H10.3125ZM14.3944 13.7719C13.2881 13.515 12.6881 12.9919 12.6881 12.2044C12.6881 11.3231 13.335 10.6631 14.4038 10.47V13.77L14.3944 13.7719ZM15.6919 16.0087C17.0363 16.32 17.6569 16.8244 17.6569 17.715C17.6569 18.7312 16.8844 19.4288 15.5287 19.5563V15.9712L15.6919 16.0087Z" fill="#444444"/>
<path d="M15 28.125C11.519 28.125 8.18064 26.7422 5.71922 24.2808C3.25781 21.8194 1.875 18.481 1.875 15C1.875 11.519 3.25781 8.18064 5.71922 5.71922C8.18064 3.25781 11.519 1.875 15 1.875C18.481 1.875 21.8194 3.25781 24.2808 5.71922C26.7422 8.18064 28.125 11.519 28.125 15C28.125 18.481 26.7422 21.8194 24.2808 24.2808C21.8194 26.7422 18.481 28.125 15 28.125ZM15 30C18.9782 30 22.7936 28.4196 25.6066 25.6066C28.4196 22.7936 30 18.9782 30 15C30 11.0218 28.4196 7.20644 25.6066 4.3934C22.7936 1.58035 18.9782 0 15 0C11.0218 0 7.20644 1.58035 4.3934 4.3934C1.58035 7.20644 0 11.0218 0 15C0 18.9782 1.58035 22.7936 4.3934 25.6066C7.20644 28.4196 11.0218 30 15 30Z" fill="#444444"/>
<path d="M15 25.3125C12.265 25.3125 9.64193 24.226 7.70796 22.292C5.77399 20.3581 4.6875 17.735 4.6875 15C4.6875 12.265 5.77399 9.64193 7.70796 7.70796C9.64193 5.77399 12.265 4.6875 15 4.6875C17.735 4.6875 20.3581 5.77399 22.292 7.70796C24.226 9.64193 25.3125 12.265 25.3125 15C25.3125 17.735 24.226 20.3581 22.292 22.292C20.3581 24.226 17.735 25.3125 15 25.3125ZM15 26.25C16.4774 26.25 17.9403 25.959 19.3052 25.3936C20.6701 24.8283 21.9103 23.9996 22.955 22.955C23.9996 21.9103 24.8283 20.6701 25.3936 19.3052C25.959 17.9403 26.25 16.4774 26.25 15C26.25 13.5226 25.959 12.0597 25.3936 10.6948C24.8283 9.3299 23.9996 8.08971 22.955 7.04505C21.9103 6.00039 20.6701 5.17172 19.3052 4.60636C17.9403 4.04099 16.4774 3.75 15 3.75C12.0163 3.75 9.15483 4.93526 7.04505 7.04505C4.93526 9.15483 3.75 12.0163 3.75 15C3.75 17.9837 4.93526 20.8452 7.04505 22.955C9.15483 25.0647 12.0163 26.25 15 26.25Z" fill="#444444"/>
</g>
<defs>
<clipPath id="clip0_486_11">
<rect width="30" height="30" fill="white"/>
</clipPath>
</defs>
</svg>
