<svg width="89" height="26" viewBox="0 0 89 26" fill="none" xmlns="http://www.w3.org/2000/svg">
<path fill-rule="evenodd" clip-rule="evenodd" d="M13.1154 19.2868C13.1154 18.3039 13.1274 15.6765 13.1 15.3527C13.1239 11.4431 9.90899 8.68517 7.87794 8.90018C6.47253 9.00801 5.29444 9.51473 4.66227 10.9724C4.07587 12.3309 4.60016 14.1379 6.54898 14.5619C8.63258 15.0172 9.84964 15.3961 10.7303 15.9306C11.8093 16.585 12.6901 17.8352 12.7135 19.2884" fill="#0060AF"/>
<path fill-rule="evenodd" clip-rule="evenodd" d="M12.2429 19.2883C12.2497 18.0282 11.4543 16.9141 10.4148 16.3153C9.49268 15.7862 8.25474 15.4386 6.25765 14.9906C5.64031 14.851 4.99456 14.5408 4.79465 14.1455C4.26583 14.6166 4.16977 15.6759 4.26281 16.2951C4.37094 17.0113 5.31769 18.1919 6.74321 18.2381C7.61377 18.269 8.71441 18.0725 9.24223 17.9733C10.1528 17.7995 11.5934 18.3037 11.8227 19.2867" fill="#0060AF"/>
<path fill-rule="evenodd" clip-rule="evenodd" d="M13.8512 2.80688C11.4339 2.80688 9.34624 4.21631 9.35353 6.65516C9.36108 8.70604 11.2264 9.80396 11.8923 10.5882C12.8981 11.7699 13.4425 13.1686 13.4989 15.3089C13.5431 17.0123 13.5408 18.6943 13.5507 19.2904H14.084C14.0749 18.6667 14.0508 16.8811 14.0782 15.2562C14.1144 13.1153 14.6785 11.7699 15.6848 10.5882C16.3564 9.80396 18.22 8.70604 18.224 6.65516C18.2333 4.21631 16.1465 2.80688 13.7317 2.80688" fill="#0060AF"/>
<path fill-rule="evenodd" clip-rule="evenodd" d="M14.4648 19.2867C14.4648 18.3038 14.4523 15.6763 14.4792 15.3526C14.4555 11.443 17.6684 8.68505 19.7013 8.90006C21.1067 9.00789 22.2832 9.51461 22.9174 10.9723C23.5031 12.3308 22.976 14.1377 21.0297 14.5617C18.9446 15.0171 17.7293 15.396 16.8464 15.9305C15.7687 16.5848 14.9494 17.8351 14.9243 19.2883" fill="#0060AF"/>
<path fill-rule="evenodd" clip-rule="evenodd" d="M15.336 19.2883C15.3284 18.0282 16.1236 16.9141 17.1601 16.3153C18.0862 15.7862 19.3254 15.4386 21.3207 14.9906C21.9393 14.851 22.5843 14.5408 22.7807 14.1455C23.3121 14.6166 23.4081 15.6759 23.3148 16.2951C23.2047 17.0113 22.2602 18.1919 20.8372 18.2381C19.9671 18.269 18.8605 18.0725 18.3349 17.9733C17.4279 17.7995 15.9832 18.3037 15.7529 19.2867" fill="#0060AF"/>
<path fill-rule="evenodd" clip-rule="evenodd" d="M16.0786 23.3559L15.7695 21.3604L16.5161 21.2603C16.6977 21.2386 16.919 21.2666 17.0075 21.3671C17.1053 21.4722 17.1352 21.5592 17.1541 21.697C17.1825 21.8678 17.1267 22.0648 16.9094 22.1631V22.1691C17.1518 22.1691 17.2984 22.3231 17.3412 22.5833C17.3472 22.6384 17.3658 22.7709 17.3472 22.8817C17.2979 23.1451 17.1204 23.2301 16.8201 23.2672L16.0786 23.3559ZM16.5593 22.9988C16.6478 22.9874 16.7376 22.9832 16.8078 22.9436C16.9154 22.8816 16.9056 22.7491 16.8905 22.6504C16.8533 22.434 16.7894 22.3516 16.5297 22.3856L16.3662 22.4078L16.4698 23.0097L16.5593 22.9988ZM16.4041 22.0767C16.5029 22.0626 16.6367 22.052 16.6925 21.969C16.7219 21.9137 16.7591 21.8697 16.7345 21.7465C16.7041 21.6006 16.6495 21.5099 16.4395 21.545L16.2441 21.5728L16.3213 22.0842L16.4041 22.0767Z" fill="#0060AF"/>
<path fill-rule="evenodd" clip-rule="evenodd" d="M19.3148 22.1559C19.3206 22.193 19.3273 22.2344 19.3299 22.2715C19.3902 22.6352 19.3148 22.9367 18.8521 23.0197C18.1679 23.136 18.0368 22.7604 17.9167 22.2344L17.8525 21.9495C17.7582 21.4464 17.7177 21.0653 18.3846 20.9477C18.7605 20.8872 19.009 21.0195 19.1123 21.3503C19.1284 21.3997 19.1486 21.4484 19.1561 21.4982L18.747 21.5729C18.6997 21.4484 18.6371 21.2263 18.453 21.2449C18.1226 21.2803 18.2317 21.6436 18.2657 21.7957L18.3886 22.342C18.4256 22.5072 18.499 22.7711 18.7849 22.7202C19.017 22.679 18.9157 22.3593 18.8951 22.2281" fill="#0060AF"/>
<path fill-rule="evenodd" clip-rule="evenodd" d="M19.9714 22.7597L19.8301 20.6946L20.3795 20.5463L21.532 22.3423L21.0992 22.4568L20.8261 22.0004L20.3456 22.128L20.4077 22.6469L19.9714 22.7597ZM20.3043 21.7945L20.6516 21.7056L20.1904 20.87L20.3043 21.7945Z" fill="#0060AF"/>
<path fill-rule="evenodd" clip-rule="evenodd" d="M6.39516 21.1984C6.56716 20.7117 6.72105 20.3531 7.37762 20.5123C7.7289 20.5992 7.94667 20.7359 7.93636 21.0968C7.9346 21.1771 7.90468 21.2591 7.88506 21.3383L7.47644 21.2386C7.53 21.0392 7.56395 20.8811 7.28634 20.8055C6.96547 20.7277 6.88727 21.0719 6.84301 21.2204L6.6768 21.7616C6.62399 21.9223 6.56062 22.188 6.84301 22.2567C7.07637 22.3121 7.21769 22.1098 7.30218 21.8141L7.01652 21.7469L7.11534 21.4339L7.78749 21.6249L7.46839 22.6683L7.1591 22.594L7.22875 22.3735H7.21995C7.07737 22.554 6.90386 22.5729 6.75173 22.5469C6.07958 22.3864 6.14974 21.9979 6.31017 21.479" fill="#0060AF"/>
<path fill-rule="evenodd" clip-rule="evenodd" d="M8.89635 22.0797L8.69393 22.9286L8.23828 22.8417L8.72385 20.8595L9.50061 21.0145C9.95525 21.1014 10.0925 21.2802 10.0282 21.6488C9.99146 21.8603 9.87353 22.0879 9.5856 22.0695L9.58259 22.0661C9.826 22.1413 9.84662 22.25 9.80412 22.4374C9.78577 22.5175 9.65928 23.0018 9.74654 23.08L9.74956 23.1396L9.27807 23.0307C9.25845 22.8966 9.32534 22.6551 9.35175 22.5213C9.37815 22.403 9.42065 22.2362 9.28486 22.1738C9.17874 22.1235 9.13901 22.126 9.01881 22.1017L8.89635 22.0797ZM8.97369 21.7727L9.28047 21.8458C9.4668 21.8699 9.5704 21.7845 9.60712 21.5853C9.64031 21.4027 9.59731 21.3316 9.43009 21.2962L9.10118 21.2371L8.97369 21.7727Z" fill="#0060AF"/>
<path fill-rule="evenodd" clip-rule="evenodd" d="M11.818 21.3021L12.2687 21.3484L12.0745 22.742C11.9802 23.1838 11.7871 23.3768 11.2374 23.3165C10.6782 23.2538 10.5454 23.0288 10.5791 22.5835L10.7747 21.1912L11.2289 21.237L11.034 22.5981C11.0131 22.746 10.9746 22.965 11.2719 22.9917C11.5356 23.0095 11.5955 22.8547 11.6254 22.6626" fill="#0060AF"/>
<path fill-rule="evenodd" clip-rule="evenodd" d="M12.7666 23.3926L12.9024 21.4L13.7679 21.4332C14.1773 21.4512 14.2842 21.7464 14.2716 22.0284C14.2595 22.1998 14.1992 22.3912 14.0302 22.4951C13.8916 22.5833 13.7133 22.6042 13.5484 22.5971L13.2663 22.5833L13.2099 23.4184L12.7666 23.3926ZM13.2791 22.2792L13.5085 22.2906C13.6948 22.2966 13.8183 22.2314 13.8344 21.9895C13.8437 21.7574 13.7441 21.7178 13.5027 21.7085L13.3211 21.7029L13.2791 22.2792Z" fill="#0060AF"/>
<path fill-rule="evenodd" clip-rule="evenodd" d="M73.8286 4.73255L70.3876 10.2551C69.0888 9.32234 67.5031 8.63619 65.4796 8.63619C60.691 8.63619 58.7457 11.7921 58.7457 14.0153C58.7457 15.6657 59.9678 18.1004 64.2286 18.1004C66.0172 18.1004 68.5595 17.0004 69.2912 16.4997L65.8882 22.9067C64.266 23.1929 63.7329 23.3703 62.36 23.4079C54.7337 23.6091 51.6523 19.4666 51.6543 15.2342C51.6596 9.6385 57.2857 2.83353 66.6132 2.83353C67.1845 2.83353 67.8835 3.00852 68.4813 3.20218L69.0855 2.51892" fill="#0060AF"/>
<path fill-rule="evenodd" clip-rule="evenodd" d="M88.0266 2.69226L89.001 22.7632H81.7494L81.7454 19.3212H76.8005L75.1733 22.7632H67.3086L75.5308 8.43088L73.6768 8.42021L77.1993 2.69226H88.0266ZM81.6978 8.83246L78.9023 14.6705H81.7823L81.6978 8.83246Z" fill="#0060AF"/>
<path fill-rule="evenodd" clip-rule="evenodd" d="M47.077 2.69235C50.6681 2.71014 52.6974 4.43373 52.6974 6.92328C52.6974 9.21873 50.5572 11.2503 48.2079 12.3008C50.6267 13.0872 50.8359 15.0172 50.8359 16.3823C50.8359 19.6812 47.0926 22.7633 42.2266 22.7633H31.6143L35.7538 8.63064L34.0534 8.62197L37.5294 2.69235C37.5294 2.69235 44.1568 2.67457 47.077 2.69235ZM43.5541 10.83C44.2969 10.83 45.6085 10.6637 45.9364 9.39255C46.2958 8.01248 45.0649 7.97535 44.4744 7.97535L42.3647 7.96735L41.6289 10.83H43.5541ZM40.5711 14.3769L39.5997 17.6755H42.0841C43.0613 17.6755 44.3932 17.2464 44.7196 16.173C45.042 15.0966 44.1109 14.3769 43.1372 14.3769H40.5711Z" fill="#0060AF"/>
<path fill-rule="evenodd" clip-rule="evenodd" d="M13.946 25.2295C10.2714 25.2295 6.49547 24.4293 2.72432 22.8467L2.63178 22.8064L2.58752 22.7231C0.895198 19.5645 0 16.11 0 12.7299C0 9.3548 0.858485 6.04793 2.55182 2.89357L2.59859 2.80975L2.69289 2.76795C6.18139 1.30672 9.93393 0.566772 13.8504 0.566772C17.4984 0.566772 21.3947 1.39055 25.1158 2.9536L25.2111 2.99118L25.2554 3.07656C26.9799 6.29339 27.8894 9.74724 27.8894 13.0715C27.8894 16.3823 27.0161 19.6923 25.2893 22.9072L25.2441 22.9914L25.148 23.0306C21.7126 24.4684 17.8388 25.2295 13.946 25.2295ZM3.07396 22.4136C6.73723 23.9375 10.3912 24.7068 13.9466 24.7068C17.7165 24.7068 21.4655 23.9782 24.8031 22.597C26.461 19.4818 27.3014 16.2757 27.3014 13.0715C27.3014 9.85399 26.4243 6.50754 24.7652 3.3852C21.1539 1.88418 17.3825 1.0882 13.851 1.0882C10.0595 1.0882 6.42517 1.79924 3.04228 3.20221C1.41835 6.25941 0.591797 9.46312 0.591797 12.73C0.591797 16.0026 1.45053 19.3506 3.07396 22.4136Z" fill="#0060AF"/>
</svg>
