<svg width="82" height="24" viewBox="0 0 82 24" fill="none" xmlns="http://www.w3.org/2000/svg">
<path fill-rule="evenodd" clip-rule="evenodd" d="M7.68144 17.8975L11.0752 22.1126L2.64832 22.0928L7.68144 17.8975ZM6.61315 16.5955L0.00888956 22.099L0.0380859 8.52557L6.61315 16.5955ZM22.5049 2.96512C22.5049 2.96512 21.0596 2.278 19.3784 2.3739C17.4563 2.48236 15.8468 3.21423 14.9203 4.18276C14.3372 4.79122 13.6925 5.53366 13.3677 6.34084C12.8966 7.50854 12.793 9.05269 12.793 9.05269C12.793 9.05269 12.1222 8.4817 11.284 6.82049C10.3093 4.8883 10.0443 3.71861 9.91471 2.38459C9.79936 1.21391 9.98748 0.0570567 9.98748 0.0570567L22.5117 0.0864899L22.5049 2.96512ZM22.4964 6.81313L22.4763 15.3716C22.4763 15.3716 21.697 15.6683 21.0619 15.6668C20.4268 15.6653 19.3454 15.5688 18.0909 14.8765C16.8455 14.1899 16.1572 13.361 15.6239 12.6102C15.083 11.8465 14.6374 10.7886 14.506 10.0266C14.4004 9.41708 14.2885 7.89705 14.9149 6.66333C15.2549 5.99379 16.1656 4.84694 17.9141 4.78573C19.3393 4.73446 20.1286 5.1103 20.852 5.50874C22.2285 6.26852 22.4964 6.81313 22.4964 6.81313ZM8.83919 14.7386L11.1027 12.8643C10.3849 11.9447 10.1954 11.5983 9.39339 10.4113C8.57223 9.19641 7.88513 7.86028 7.29857 6.29309C6.66367 4.59541 6.51159 3.64282 6.5851 2.37674C6.67726 0.765905 7.04595 0.0501216 7.04595 0.0501216L0.0546875 0.0336914L0.0490919 3.79468C0.0490919 3.79468 5.38498 10.5015 8.83919 14.7386ZM15.2773 22.1159L22.4599 22.1328L22.4722 16.9053C22.4722 16.9053 20.6887 17.7168 19.5305 17.7799C18.841 17.8185 18.1718 17.8434 17.0928 17.5542C15.8933 17.233 15.2122 16.9212 14.102 16.0027C13.2103 15.2661 12.1912 14.1789 12.1912 14.1789L9.91447 16.0646C10.9657 17.3542 11.7421 18.293 11.9799 18.5458C13.0022 19.6292 13.4355 20.0275 14.1249 20.4143C14.8139 20.802 17.1193 20.7865 17.1193 20.7865L15.2773 22.1159Z" fill="#E94E0F"/>
<path fill-rule="evenodd" clip-rule="evenodd" d="M76.7917 17.6104C76.7882 19.1251 76.9869 21.6152 75.2861 22.2173L75.2859 22.3183L81.7401 22.3334L81.7404 22.2325C80.0436 21.5892 80.2531 19.1332 80.2567 17.6186L80.2865 4.93285C80.29 3.41898 80.0921 0.928312 81.7919 0.293024L81.7922 0.192099L75.3379 0.176931L75.3377 0.277856C77.0688 0.921207 76.8252 3.37711 76.8215 4.92471L76.7917 17.6104ZM53.1548 4.86904L64.7725 19.5343C66.2622 21.4553 67.3133 22.5688 69.7232 23.3816L69.7676 4.50438C69.772 2.62027 69.7752 1.27399 71.5445 0.268893L71.5447 0.167968L65.5653 0.153916L65.5651 0.25484C67.3634 1.26832 67.3256 2.61453 67.3212 4.49863L67.2912 17.2518L54.8952 1.67645L54.4206 1.00232C54.1839 0.73272 54.0486 0.564282 53.9136 0.160264L53.9137 0.126533L48.9532 0.114875L48.9529 0.2158C50.7172 1.2292 50.7141 2.57549 50.7096 4.45959L50.6781 17.8863C50.6736 19.7702 50.6705 21.1159 48.8681 22.1552L48.8679 22.2561L54.8808 22.2703L54.8811 22.1693C53.0828 21.1216 53.1197 19.7759 53.1242 17.8921L53.1548 4.86904ZM34.1528 8.99806L34.1683 2.40221L36.4447 2.17142C38.4839 1.97434 40.655 3.19121 40.6495 5.51352C40.643 8.27303 37.4817 9.00589 35.274 9.0007L34.1528 8.99806ZM34.1276 19.5303L34.1471 11.2177L36.5251 11.0889C39.5154 10.9275 42.7055 12.3489 42.6978 15.6131C42.6903 18.8101 39.8682 20.0822 37.0822 19.8066L34.1276 19.5303ZM30.6661 17.4687C30.6625 19.0168 30.8607 21.4737 29.1601 22.109L29.1599 22.21L34.7653 22.2231C37.313 22.2291 39.9972 22.3366 42.3773 21.198C44.656 20.1264 46.4619 17.9095 46.468 15.3184C46.4757 12.0213 44.0001 9.9962 40.9442 9.3492C42.8828 8.51289 44.346 7.23777 44.3513 4.98316C44.3583 1.98834 41.7478 0.0980915 37.2639 0.087554L29.2119 0.0686309L29.2117 0.169556C30.9436 0.812908 30.6995 3.26881 30.6959 4.78268L30.6661 17.4687Z" fill="#005B6A"/>
</svg>
