<svg width="90" height="22" viewBox="0 0 90 22" fill="none" xmlns="http://www.w3.org/2000/svg">
<path fill-rule="evenodd" clip-rule="evenodd" d="M24.1445 5.71997H28.9533C30.9006 5.71997 32.3523 6.57997 32.3523 8.39041C32.3523 9.71783 31.6794 10.4571 30.5103 10.8487V10.8786C31.9037 11.166 32.6227 11.9204 32.6227 13.2019C32.6227 15.7217 30.4201 16.2493 28.548 16.2493H24.1445V5.71997ZM26.9307 9.88359H27.7103C28.624 9.88359 29.5683 9.65723 29.5683 8.76647C29.5683 7.80225 28.6692 7.71088 27.7395 7.71088H26.9307V9.88359ZM26.9307 14.2584H27.7559C28.7736 14.2584 29.8368 14.1073 29.8368 13.0361C29.8368 11.8905 28.7439 11.784 27.7851 11.784H26.9307V14.2584Z" fill="#00529C"/>
<path fill-rule="evenodd" clip-rule="evenodd" d="M36.279 5.71985H39.6944L43.724 16.2492H40.6678L39.8895 14.0021H35.9648L35.1405 16.2492H32.3096L36.279 5.71985ZM37.9871 7.89261H37.9557L36.6084 12.0112H39.2295L37.9871 7.89261Z" fill="#00529C"/>
<path fill-rule="evenodd" clip-rule="evenodd" d="M44.1123 5.71985H47.6622L51.1976 12.8707H51.2268L51.1825 5.71985H53.7299V16.2492H50.2693L46.6131 9.05377H46.5844L46.6738 16.2492H44.1123V5.71985Z" fill="#00529C"/>
<path fill-rule="evenodd" clip-rule="evenodd" d="M54.6748 5.71985H57.4606V10.0203H57.4907L60.6353 5.71985H63.9919L60.1265 10.6222L64.2915 16.2492H60.7401L57.4907 11.4675H57.4606V16.2492H54.6748V5.71985Z" fill="#00529C"/>
<path fill-rule="evenodd" clip-rule="evenodd" d="M67.7471 5.71985H72.5559C74.5027 5.71985 75.9562 6.57984 75.9562 8.39029C75.9562 9.71771 75.2833 10.4569 74.1142 10.8486V10.8784C75.5071 11.1659 76.2262 11.9203 76.2262 13.2018C76.2262 15.7216 74.024 16.2492 72.1523 16.2492H67.7471V5.71985ZM70.5334 9.88358H71.3117C72.2259 9.88358 73.1688 9.65722 73.1688 8.76646C73.1688 7.80223 72.271 7.71086 71.3427 7.71086H70.5334V9.88358ZM70.5334 14.2584H71.3578C72.3754 14.2584 73.4396 14.1073 73.4396 13.0361C73.4396 11.8905 72.3463 11.784 71.3874 11.784H70.5334V14.2584Z" fill="#00529C"/>
<path fill-rule="evenodd" clip-rule="evenodd" d="M76.8428 5.71985H81.8161C83.6732 5.71985 85.1869 6.56423 85.1869 8.3756C85.1869 9.77831 84.5276 10.7136 83.1799 11.03V11.0598C84.0767 11.3018 84.1378 12.1007 84.6621 13.3831L85.6811 16.2492H82.7754L82.1759 14.3497C81.6064 12.5392 81.2467 12.0856 80.2131 12.0856H79.6286V16.2492H76.8428V5.71985ZM79.6279 10.0948H80.3624C81.2611 10.0948 82.4 10.064 82.4 8.87254C82.4 7.8927 81.4252 7.71088 80.3624 7.71088H79.6279V10.0948Z" fill="#00529C"/>
<mask id="mask0_242_402" style="mask-type:luminance" maskUnits="userSpaceOnUse" x="0" y="0" width="90" height="22">
<path fill-rule="evenodd" clip-rule="evenodd" d="M0 21.5668H89.2344V0.409912H0V21.5668Z" fill="white"/>
</mask>
<g mask="url(#mask0_242_402)">
<path fill-rule="evenodd" clip-rule="evenodd" d="M86.4492 16.2493H89.235V5.71997H86.4492V16.2493Z" fill="#00529C"/>
<path fill-rule="evenodd" clip-rule="evenodd" d="M17.7866 0.40979H3.20479C1.43484 0.40979 0 1.89056 0 3.71754V3.75243V18.2599C0 20.0689 1.40839 21.5396 3.15555 21.5667H17.7789C19.5493 21.5667 20.9846 20.0859 20.9846 18.2599L20.9914 3.71754C20.9914 1.89056 19.557 0.40979 17.7866 0.40979ZM4.93915 19.8715L4.14354 19.8802C3.1806 19.8802 2.40003 19.0836 2.40003 18.1005L2.39547 17.9605V4.53021L2.40049 3.80704C2.43651 2.85567 3.15415 2.0898 4.0943 2.0898H5.71151C7.1769 2.0898 8.36553 3.37314 8.36553 4.88743C8.36553 5.63585 8.07418 6.3154 7.60229 6.80945L3.47604 11.0259L7.34331 14.9916C7.84211 15.509 8.14348 16.1895 8.14348 16.9347C8.14348 18.5569 6.70865 19.8715 4.93915 19.8715ZM16.8278 19.8582L9.61755 19.8549C9.61755 19.8549 10.4515 18.0404 10.4515 16.9173C10.4515 15.5481 9.99644 14.3244 9.28472 13.5149L6.81855 10.9832L9.33578 8.36415C10.0849 7.65475 10.5828 6.39575 10.5828 4.96181C10.5828 3.82632 10.2709 2.82031 9.76892 2.0898H11.5161C12.9819 2.0898 14.1706 3.37314 14.1706 4.88743C14.1706 5.63585 13.8797 6.3154 13.4078 6.80945L9.3604 10.9818L17.7665 19.6143C17.5003 19.7833 17.1642 19.8582 16.8278 19.8582ZM18.5868 17.163L12.5625 10.98L15.4317 8.04324C16.0162 7.30814 16.3864 6.2002 16.3864 4.96186C16.3864 3.81902 16.07 2.78868 15.5634 2.05771L16.8478 2.09627C17.8108 2.09627 18.5913 2.89429 18.5913 3.87688L18.5868 17.163Z" fill="#00529C"/>
</g>
</svg>
