<svg width="89" height="27" viewBox="0 0 89 27" fill="none" xmlns="http://www.w3.org/2000/svg">
<path fill-rule="evenodd" clip-rule="evenodd" d="M0.0928128 18.2071C0.0928128 16.8918 0.0696096 15.7881 0 14.8039H2.41499L2.52822 16.4947H2.59597C3.14334 15.6012 4.14432 14.5446 6.01149 14.5446C7.46888 14.5446 8.60723 15.3917 9.08452 16.6588H9.13139C9.51912 16.0251 9.97297 15.556 10.4962 15.2261C11.1116 14.7807 11.8176 14.5446 12.7284 14.5446C14.5721 14.5446 16.4378 15.8354 16.4378 19.498V26.2343H13.7061V19.9212C13.7061 18.02 13.0697 16.8918 11.7271 16.8918C10.7693 16.8918 10.0628 17.5973 9.76878 18.4193C9.69964 18.7002 9.63142 19.0525 9.63142 19.3788V26.2343H6.89878V19.615C6.89878 18.02 6.28505 16.8918 4.98707 16.8918C3.93967 16.8918 3.23476 17.7382 2.9837 18.5346C2.86908 18.8181 2.82313 19.1458 2.82313 19.4738V26.2343H0.0928128V18.2071Z" fill="#003D79"/>
<path fill-rule="evenodd" clip-rule="evenodd" d="M27.0806 23.4888C27.0806 24.521 27.126 25.5286 27.24 26.2348H24.712L24.5305 24.9677H24.4614C23.7787 25.8604 22.6177 26.4932 21.1835 26.4932C18.9518 26.4932 17.7002 24.8279 17.7002 23.09C17.7002 20.2018 20.1809 18.7478 24.2792 18.771V18.5825C24.2792 17.8311 23.9829 16.5878 22.0253 16.5878C20.9319 16.5878 19.7931 16.9402 19.0423 17.4323L18.4951 15.556C19.3163 15.0386 20.7519 14.545 22.5035 14.545C26.0566 14.545 27.0806 16.8703 27.0806 19.3573V23.4888ZM24.3469 20.6488C22.3665 20.6015 20.4773 21.0474 20.4773 22.7847C20.4773 23.9102 21.1829 24.4277 22.0712 24.4277C23.1854 24.4277 24.0063 23.6763 24.256 22.855C24.3237 22.6437 24.3469 22.4081 24.3469 22.221V20.6488Z" fill="#003D79"/>
<path fill-rule="evenodd" clip-rule="evenodd" d="M29.0162 18.2071C29.0162 16.8918 28.9912 15.7881 28.9248 14.8039H31.3816L31.5189 16.5172H31.5862C32.0649 15.6263 33.2715 14.5446 35.1152 14.5446C37.051 14.5446 39.0544 15.8354 39.0544 19.4511V26.2343H36.2545V19.7805C36.2545 18.1363 35.6626 16.8918 34.1369 16.8918C33.0213 16.8918 32.2475 17.7136 31.9507 18.5825C31.8612 18.8413 31.8375 19.1942 31.8375 19.5205V26.2343H29.0162V18.2071Z" fill="#003D79"/>
<path fill-rule="evenodd" clip-rule="evenodd" d="M51.197 10.2109V23.0179C51.197 24.1913 51.2418 25.4611 51.2875 26.2348H48.7829L48.6708 24.4277H48.6244C47.9638 25.6958 46.6185 26.4932 45.0038 26.4932C42.364 26.4932 40.2687 24.1698 40.2687 20.6489C40.2455 16.8224 42.5677 14.545 45.2312 14.545C46.7561 14.545 47.8499 15.2031 48.3499 16.0488H48.3961V10.2109H51.197ZM48.3964 19.5673C48.3964 19.335 48.3729 19.052 48.3291 18.8181C48.0783 17.6913 47.1898 16.7753 45.9148 16.7753C44.1163 16.7753 43.1144 18.4193 43.1144 20.5553C43.1144 22.6438 44.1163 24.1698 45.8921 24.1698C47.0299 24.1698 48.0323 23.372 48.3052 22.1282C48.3729 21.8689 48.3964 21.5876 48.3964 21.2814V19.5673Z" fill="#003D79"/>
<path fill-rule="evenodd" clip-rule="evenodd" d="M53.1748 26.2342H56.0007V14.8044H53.1748V26.2342Z" fill="#003D79"/>
<path fill-rule="evenodd" clip-rule="evenodd" d="M57.9803 18.4886C57.9803 16.9401 57.9567 15.8354 57.8887 14.8036H60.3252L60.4143 16.9858H60.5088C61.0543 15.3663 62.3523 14.8036 63.5356 14.8036C63.8083 14.8036 63.9675 14.7555 64.1958 14.8036V17.3394C63.9675 17.2925 63.7176 17.2456 63.376 17.2456C62.033 17.2456 61.1216 18.1367 60.8714 19.4269C60.8271 19.6852 60.7812 19.9917 60.7812 20.3218V26.2348H57.9803V18.4886Z" fill="#003D79"/>
<path fill-rule="evenodd" clip-rule="evenodd" d="M65.4932 26.2342H68.3149V14.8044H65.4932V26.2342Z" fill="#003D79"/>
<path fill-rule="evenodd" clip-rule="evenodd" d="M64.8246 0.984655C63.1296 1.99658 59.1317 4.36062 57.6392 5.24097C56.7297 5.7187 54.623 5.92731 53.4316 4.27091C53.4102 4.241 51.8468 2.22696 51.783 2.15112C51.7382 2.09754 50.7275 0.551895 48.4754 0.503571C48.1426 0.495437 46.4882 0.486347 44.874 1.43225C42.7284 2.69608 37.7383 5.63737 37.7383 5.63737C37.7369 5.63737 37.7369 5.64 37.7344 5.64C35.6832 6.85 34.085 7.79208 34.085 7.79208L35.9732 10.1831C36.8566 11.314 38.8486 12.1888 40.5761 11.1664C40.5761 11.1664 46.959 7.35549 46.9825 7.34448C49.7429 5.78353 51.873 5.78353 53.2868 6.36437C54.5558 6.91723 55.6598 8.29469 55.6598 8.29469C55.6598 8.29469 57.1025 10.1382 57.3571 10.4606C58.178 11.5025 59.5368 11.0932 59.5368 11.0932C59.5368 11.0932 60.0403 11.0343 60.7993 10.5697C60.7993 10.5697 66.982 6.87369 66.9859 6.87249C68.9492 5.68497 70.7497 5.46321 71.67 5.55053C74.5523 5.82061 75.4477 7.89662 76.6974 9.34489C77.4334 10.1968 78.0975 10.6805 79.1131 10.6561C79.7804 10.6415 80.5343 10.2243 80.6454 10.1489L88.0491 5.74382C88.0491 5.74382 87.2895 4.5642 85.7337 2.72885C84.3413 1.09135 82.8623 1.83223 81.6831 2.43437C81.1877 2.68699 79.3927 3.91805 77.6144 4.77687C76.3473 5.38857 74.5272 5.20461 73.5297 3.93384C73.4701 3.85657 71.8563 1.84228 71.6867 1.59444C71.0354 0.753323 69.7645 0 68.1359 0C67.1456 0 66.0219 0.278459 64.8246 0.984655Z" fill="url(#paint0_linear_242_482)"/>
<defs>
<linearGradient id="paint0_linear_242_482" x1="34.085" y1="11.6192" x2="88.0491" y2="11.6192" gradientUnits="userSpaceOnUse">
<stop stop-color="#FFCA06"/>
<stop offset="0.330844" stop-color="#FBAA18"/>
<stop offset="0.694742" stop-color="#FFC907"/>
<stop offset="1" stop-color="#FAA619"/>
</linearGradient>
</defs>
</svg>
