<svg width="24" height="24" viewBox="0 0 24 24" fill="none" xmlns="http://www.w3.org/2000/svg">
<path d="M14.005 9.93483C13.8042 9.93483 13.6415 10.1219 13.6415 10.3527V13.4746C13.6415 13.7054 13.8042 13.8925 14.005 13.8925H22.001C22.2017 13.8925 22.3645 13.7054 22.3645 13.4746V10.3527C22.3645 10.1219 22.2017 9.93483 22.001 9.93483H14.005ZM18.9073 0.0011094C20.0136 0.0629575 20.8098 0.320382 21.3128 0.865105C21.811 1.40457 22.0672 2.18588 22.1173 3.21887V6.17898C22.1173 6.69828 21.7512 7.11926 21.2996 7.11926C20.8479 7.11926 20.4818 6.69828 20.4818 6.17898L20.4831 3.27263C20.4563 2.73469 20.3476 2.40315 20.1915 2.23409C20.0402 2.07028 19.58 1.92149 18.8676 1.88055L3.17672 1.87984C2.53145 1.90862 2.11305 2.05233 1.91004 2.25684C1.75391 2.4141 1.63687 2.84629 1.63555 3.593L1.63191 20.2091C1.69172 20.9355 1.82808 21.4189 2.00181 21.6609C2.13356 21.8444 2.54304 22.0287 3.14503 22.1175L18.8844 22.1177C19.6211 22.1351 20.0558 22.0054 20.2017 21.8314C20.3635 21.6383 20.4818 21.1302 20.4818 20.2977V17.4118C20.4818 16.8925 20.8479 16.4715 21.2996 16.4715C21.7512 16.4715 22.1173 16.8925 22.1173 17.4118V20.2977C22.1173 21.5702 21.8963 22.5195 21.3794 23.1363C20.8465 23.7721 19.9992 24.025 18.8676 23.9981L3.04859 23.9915C1.97198 23.8445 1.19887 23.4966 0.74047 22.8581C0.324058 22.278 0.0915066 21.4536 0 20.2977V3.59109C0.00218844 2.35487 0.25406 1.42479 0.832249 0.842355C1.36355 0.307155 2.12774 0.0446581 3.14503 0L18.9073 0.0011094ZM22.001 8.05428C23.105 8.05428 24 9.08333 24 10.3527V13.4746C24 14.744 23.105 15.7731 22.001 15.7731H14.005C12.9009 15.7731 12.006 14.744 12.006 13.4746V10.3527C12.006 9.08333 12.9009 8.05428 14.005 8.05428H22.001ZM16.004 10.7921C15.452 10.7921 15.0045 11.3 15.0045 11.9264C15.0045 12.5529 15.452 13.0607 16.004 13.0607C16.556 13.0607 17.0035 12.5529 17.0035 11.9264C17.0035 11.3 16.556 10.7921 16.004 10.7921Z" fill="#FFC60B"/>
</svg>
