<svg width="17" height="17" viewBox="0 0 17 17" fill="none" xmlns="http://www.w3.org/2000/svg">
<path fill-rule="evenodd" clip-rule="evenodd" d="M12.5376 7.01175L12.264 9.0094H8.97684V16.0012H6.97919V9.0094H3.98271V7.01175H6.97919V5.1809C6.97919 2.6409 8.53935 0.998821 10.9555 0.998821C11.9903 0.998821 12.6355 1.05376 13.0081 1.1037L12.9791 2.99548L11.4429 2.99847C11.401 2.99448 10.4002 2.91657 9.67801 3.57979C9.21256 4.00629 8.97684 4.61956 8.97684 5.40065V7.01176H12.5376V7.01175ZM10.3482 4.31992C10.7418 3.95335 11.355 3.9933 11.4 3.9953L13.963 3.9943L14.0179 0.297651L13.6324 0.20276C13.3847 0.141844 12.6265 0 10.9555 0C7.98001 0 5.98036 2.08255 5.98036 5.1809V6.01293H2.98389V10.0082H5.98036V17H9.97566V10.0082H13.1339L13.6823 6.01293H9.97567V5.40064C9.97567 4.91422 10.1015 4.55064 10.3482 4.31992Z" fill="white"/>
</svg>
