<svg width="21" height="21" viewBox="0 0 21 21" fill="none" xmlns="http://www.w3.org/2000/svg">
<path fill-rule="evenodd" clip-rule="evenodd" d="M1.75 5.25C1.75 3.317 3.317 1.75 5.25 1.75H15.75C17.683 1.75 19.25 3.317 19.25 5.25V15.75C19.25 17.683 17.683 19.25 15.75 19.25H5.25C3.317 19.25 1.75 17.683 1.75 15.75V5.25ZM5.25 3.5C4.2835 3.5 3.5 4.2835 3.5 5.25V15.75C3.5 16.7165 4.2835 17.5 5.25 17.5H15.75C16.7165 17.5 17.5 16.7165 17.5 15.75V5.25C17.5 4.2835 16.7165 3.5 15.75 3.5H5.25ZM10.5 7.875C9.05021 7.875 7.875 9.05021 7.875 10.5C7.875 11.9498 9.05021 13.125 10.5 13.125C11.9498 13.125 13.125 11.9498 13.125 10.5C13.125 9.05021 11.9498 7.875 10.5 7.875ZM6.125 10.5C6.125 8.08376 8.08376 6.125 10.5 6.125C12.9162 6.125 14.875 8.08376 14.875 10.5C14.875 12.9162 12.9162 14.875 10.5 14.875C8.08376 14.875 6.125 12.9162 6.125 10.5ZM15.3125 7C16.0373 7 16.625 6.41238 16.625 5.6875C16.625 4.96262 16.0373 4.375 15.3125 4.375C14.5877 4.375 14 4.96262 14 5.6875C14 6.41238 14.5877 7 15.3125 7Z" fill="white"/>
</svg>
