<svg width="22" height="22" viewBox="0 0 22 22" fill="none" xmlns="http://www.w3.org/2000/svg">
<path d="M11.748 18.8905C15.4467 17.0045 18.3334 13.8811 18.3334 10.0835C18.3334 6.03337 15.0502 2.75012 11.0001 2.75012C6.94999 2.75012 3.66675 6.03337 3.66675 10.0835C3.66675 13.8811 6.55341 17.0045 10.2522 18.8905C10.7221 19.1301 11.278 19.1301 11.748 18.8905Z" stroke="#FFC60B" stroke-width="1.8" stroke-linecap="round" stroke-linejoin="round"/>
<path d="M13.75 10.0835C13.75 11.6023 12.5188 12.8335 11 12.8335C9.48117 12.8335 8.25 11.6023 8.25 10.0835C8.25 8.56472 9.48117 7.3335 11 7.3335C12.5188 7.3335 13.75 8.56472 13.75 10.0835Z" stroke="#FFC60B" stroke-width="1.8" stroke-linecap="round" stroke-linejoin="round"/>
</svg>
