<svg width="18" height="18" viewBox="0 0 18 18" fill="none" xmlns="http://www.w3.org/2000/svg">
<g clip-path="url(#clip0_486_92)">
<path d="M4.60898 0.650196C5.26654 1.55695 6.05066 2.72807 6.95741 4.15851C7.18579 4.54551 7.15091 5.00901 6.8556 5.55407C6.7431 5.78245 6.45848 6.30276 6.0051 7.12176C6.50404 7.82488 7.26398 8.68945 8.2866 9.70926C9.30923 10.7291 10.1603 11.4918 10.8392 11.9908C11.6549 11.5126 12.1785 11.2207 12.4075 11.1048C12.7028 10.9468 12.9874 10.8658 13.258 10.8658C13.4622 10.8658 13.645 10.9113 13.803 11.003C14.847 11.6392 16.0283 12.4233 17.3434 13.3514C17.5932 13.5343 17.7338 13.784 17.7687 14.1001C17.8041 14.4202 17.7051 14.7577 17.4807 15.1233C17.3682 15.2814 17.1854 15.5137 16.9356 15.8231C16.6859 16.1291 16.3095 16.5155 15.8106 16.9796C15.3117 17.4436 14.9033 17.6793 14.5838 17.6793H14.5484C12.147 17.5843 9.18716 15.7843 5.68223 12.2793C2.17391 8.77045 0.373352 5.81395 0.282227 3.40926C0.282227 3.09257 0.513977 2.67801 0.981977 2.16501C1.44604 1.65538 1.8291 1.28582 2.12104 1.05745C2.41635 0.832446 2.6661 0.649634 2.86973 0.512384C3.11948 0.329571 3.4041 0.241821 3.72079 0.241821C4.11116 0.241821 4.40254 0.379071 4.6101 0.649634L4.60898 0.650196ZM3.48398 1.36401C3.00585 1.70488 2.55923 2.08795 2.13735 2.50645C1.71885 2.92832 1.47304 3.2377 1.4061 3.44132C1.49779 5.55407 3.18135 8.24338 6.46185 11.5132C9.74235 14.783 12.4384 16.4739 14.5478 16.5864C14.7306 16.5194 15.0293 16.2697 15.4512 15.8377C15.873 15.4057 16.2527 14.9518 16.5902 14.477C16.6572 14.3853 16.6819 14.3083 16.6572 14.2379C15.2965 13.2851 14.1608 12.5257 13.2507 11.9564C13.159 11.9564 13.0465 11.9919 12.9098 12.0583C12.7056 12.1708 12.196 12.4554 11.377 12.9088L10.797 13.2496L10.2171 12.8733C9.46841 12.353 8.5611 11.5441 7.49235 10.4546C6.42698 9.3892 5.63273 8.47907 5.10848 7.72982L4.70066 7.18476L5.04154 6.57276C5.49491 5.75713 5.7801 5.24357 5.89204 5.03995C5.95898 4.9027 5.99385 4.7902 5.99385 4.69907C5.18498 3.4087 4.43629 2.27301 3.75454 1.29595H3.7191C3.63135 1.29595 3.55035 1.3207 3.48341 1.36288L3.48398 1.36401Z" fill="#FFC60B"/>
</g>
<defs>
<clipPath id="clip0_486_92">
<rect width="18" height="18" fill="white"/>
</clipPath>
</defs>
</svg>
