<svg width="20" height="20" viewBox="0 0 20 20" fill="none" xmlns="http://www.w3.org/2000/svg">
<path fill-rule="evenodd" clip-rule="evenodd" d="M10.0001 3.33329C6.31818 3.33329 3.33341 6.31806 3.33341 9.99996C3.33341 13.6819 6.31818 16.6666 10.0001 16.6666C13.682 16.6666 16.6667 13.6819 16.6667 9.99996C16.6667 6.31806 13.682 3.33329 10.0001 3.33329ZM1.66675 9.99996C1.66675 5.39758 5.39771 1.66663 10.0001 1.66663C14.6024 1.66663 18.3334 5.39758 18.3334 9.99996C18.3334 14.6023 14.6024 18.3333 10.0001 18.3333C5.39771 18.3333 1.66675 14.6023 1.66675 9.99996ZM9.85708 5.63109C10.3173 5.63109 10.6904 6.00418 10.6904 6.46443V10.6037L13.6295 11.721C14.0597 11.8845 14.2759 12.3659 14.1123 12.796C13.9488 13.2263 13.4675 13.4425 13.0373 13.2789L9.561 11.9575C9.23758 11.8345 9.02375 11.5245 9.02375 11.1785V6.46443C9.02375 6.00418 9.39683 5.63109 9.85708 5.63109Z" fill="#FFC60B"/>
</svg>
