<svg width="20" height="16" viewBox="0 0 20 16" fill="none" xmlns="http://www.w3.org/2000/svg">
<g clip-path="url(#clip0_486_110)">
<path d="M13.1252 1.23077C14.1575 1.23077 15.3288 1.632 15.9852 2.30031C16.8012 2.14523 17.5713 1.86154 18.2635 1.46831C17.9963 2.26892 17.4261 2.94092 16.6855 3.36554C17.4104 3.28123 18.1045 3.09846 18.7476 2.82462C18.2661 3.512 17.6581 4.11692 16.9565 4.60123C16.9628 4.74769 16.9665 4.89538 16.9665 5.04308C16.9665 9.57662 13.4823 14.7692 6.87727 14.7692C4.85036 14.7692 2.83351 14.2357 1.24606 13.2622C1.52646 13.2954 1.81251 13.3114 2.10171 13.3114C3.7841 13.3114 5.33257 12.7631 6.56292 11.8412C4.98993 11.8148 3.66339 10.8222 3.20821 9.46031C3.42637 9.49969 3.6527 9.52185 3.88406 9.52185C4.20972 9.52185 4.52847 9.48062 4.82899 9.40123C3.18621 9.088 1.94894 7.70092 1.94894 6.03877C1.94894 6.02277 1.94894 6.00862 1.94894 5.99385C2.43366 6.25108 2.98628 6.40615 3.57537 6.42462C2.61158 5.80738 1.97849 4.75938 1.97849 3.56862C1.97849 2.93969 2.15515 2.34954 2.46384 1.84492C4.23424 3.91815 6.88104 5.28492 9.86608 5.42892C9.80384 5.17785 9.77177 4.91323 9.77177 4.648C9.77177 2.75262 11.1411 1.23077 13.1252 1.23077ZM18.7476 2.82462H18.7508H18.7476ZM13.1252 0C10.7085 0 8.83942 1.69415 8.55902 4.032C6.55412 3.63385 4.73028 2.58708 3.42008 1.05292C3.18181 0.773538 2.831 0.614154 2.46384 0.614154C2.43115 0.614154 2.39846 0.615385 2.36576 0.617846C1.9634 0.649231 1.60127 0.869538 1.39317 1.20985C0.958748 1.92123 0.728646 2.73662 0.728646 3.56862C0.728646 4.12308 0.830494 4.664 1.02162 5.16923C0.817291 5.392 0.699726 5.68492 0.699726 5.99385V6.03877C0.699726 7.24431 1.18319 8.36246 1.98666 9.20123C1.94077 9.41169 1.95083 9.63385 2.02124 9.84492C2.29912 10.6757 2.80333 11.3908 3.45718 11.936C3.01772 12.032 2.56443 12.0806 2.10171 12.0806C1.85715 12.0806 1.62013 12.0671 1.39695 12.04C1.34602 12.0345 1.29573 12.0314 1.24543 12.0314C0.72173 12.0314 0.245809 12.3557 0.0678887 12.8529C-0.127006 13.3969 0.0880069 14.0018 0.585932 14.3071C2.36639 15.3988 4.60077 16 6.87727 16C11.1769 16 13.847 14.0572 15.3294 12.4277C17.1275 10.4517 18.1736 7.82646 18.2145 5.20308C18.7973 4.72738 19.3116 4.17846 19.7473 3.56431C19.9051 3.35877 19.9987 3.10215 19.9987 2.82462C19.9987 2.40554 19.7869 2.03569 19.4631 1.81292C19.6033 1.33908 19.4423 0.825846 19.0513 0.512615C18.8231 0.330462 18.5439 0.237538 18.2629 0.237538C18.0485 0.237538 17.8329 0.291692 17.6386 0.402462C17.2205 0.64 16.7735 0.827077 16.3026 0.961231C15.4376 0.364308 14.2638 0 13.1252 0Z" fill="white"/>
</g>
<defs>
<clipPath id="clip0_486_110">
<rect width="20" height="16" fill="white"/>
</clipPath>
</defs>
</svg>
