<svg width="17" height="17" viewBox="0 0 17 17" fill="none" xmlns="http://www.w3.org/2000/svg">
<path fill-rule="evenodd" clip-rule="evenodd" d="M2.47934 8.5C2.47934 5.17479 5.17496 2.47917 8.50016 2.47917C11.8254 2.47917 14.521 5.17479 14.521 8.5C14.521 11.8252 11.8254 14.5208 8.50016 14.5208C7.31569 14.5208 6.21315 14.1796 5.2829 13.5902C5.10978 13.4805 4.89764 13.4512 4.70126 13.5098L2.66186 14.1184L3.42972 12.3217C3.52048 12.1093 3.50202 11.8661 3.38024 11.6699C2.8092 10.7497 2.47934 9.66443 2.47934 8.5ZM8.50016 1.0625C4.39256 1.0625 1.06268 4.39238 1.06268 8.5C1.06268 9.80199 1.39782 11.0275 1.98679 12.0932L0.765497 14.9508C0.657531 15.2035 0.705388 15.4957 0.888286 15.7007C1.07119 15.9058 1.35614 15.9865 1.61941 15.9079L4.8065 14.9568C5.89523 15.5809 7.15695 15.9375 8.50016 15.9375C12.6078 15.9375 15.9377 12.6076 15.9377 8.5C15.9377 4.39238 12.6078 1.0625 8.50016 1.0625ZM10.124 10.0459L9.19313 10.7016C8.75715 10.4532 8.27513 10.1066 7.79162 9.62306C7.28898 9.12043 6.91634 8.6015 6.64158 8.1255L7.23317 7.62337C7.48703 7.40789 7.55652 7.04461 7.40012 6.75062L6.64634 5.33395C6.54484 5.14319 6.36182 5.00919 6.14931 4.97005C5.9368 4.93091 5.71805 4.99092 5.55525 5.133L5.33176 5.32805C4.79433 5.7971 4.47648 6.56788 4.73991 7.34832C5.01302 8.15738 5.59588 9.43075 6.78991 10.6248C8.07453 11.9094 9.37942 12.4153 10.1425 12.6118C10.7573 12.77 11.3392 12.5579 11.7491 12.2239L12.1681 11.8824C12.3473 11.7364 12.444 11.5121 12.4272 11.2816C12.4102 11.051 12.2819 10.8432 12.0833 10.7248L10.8945 10.0165C10.6543 9.87346 10.3526 9.88493 10.124 10.0459Z" fill="#FFC60B"/>
</svg>
