<svg width="21" height="27" viewBox="0 0 21 27" fill="none" xmlns="http://www.w3.org/2000/svg">
<path fill-rule="evenodd" clip-rule="evenodd" d="M15.6609 6.61996C15.6609 9.46974 13.3506 11.78 10.5009 11.78C7.651 11.78 5.34082 9.46974 5.34082 6.61996C5.34082 3.77018 7.651 1.45996 10.5009 1.45996C11.8693 1.45996 13.1818 2.0036 14.1495 2.97129C15.1172 3.93898 15.6609 5.25144 15.6609 6.61996Z" stroke="#444444" stroke-width="2" stroke-linecap="round" stroke-linejoin="round"/>
<path fill-rule="evenodd" clip-rule="evenodd" d="M14.9163 15.22H6.08577C5.53061 15.2207 4.97947 15.3142 4.45521 15.4969C-1.58201 17.5798 4.16107 25.54 10.5011 25.54C16.841 25.54 22.5841 17.5798 16.5452 15.4969C16.0214 15.3144 15.4708 15.2208 14.9163 15.22Z" stroke="#444444" stroke-width="2" stroke-linecap="round" stroke-linejoin="round"/>
</svg>
