<svg width="23" height="27" viewBox="0 0 23 27" fill="none" xmlns="http://www.w3.org/2000/svg">
<path d="M11.0815 6.42679C11.6854 6.41186 12.1628 5.91022 12.1479 5.30634C12.1329 4.70247 11.6314 4.22503 11.0275 4.23996L11.0815 6.42679ZM3.1972 13.7815H4.29095C4.29095 13.7733 4.29086 13.7652 4.29067 13.7569L3.1972 13.7815ZM3.1972 17.1605L3.25422 18.2528C3.83534 18.2224 4.29095 17.7423 4.29095 17.1605H3.1972ZM3.1972 21.6667L3.14018 22.759C3.15916 22.76 3.17818 22.7605 3.1972 22.7605V21.6667ZM7.73725 22.7605C8.34131 22.7605 8.83096 22.2708 8.83096 21.6667C8.83096 21.0627 8.34131 20.573 7.73725 20.573V22.7605ZM9.96073 5.33337C9.96073 5.93743 10.4504 6.42712 11.0545 6.42712C11.6585 6.42712 12.1482 5.93743 12.1482 5.33337H9.96073ZM12.1482 1.83337C12.1482 1.22932 11.6585 0.739624 11.0545 0.739624C10.4504 0.739624 9.96073 1.22932 9.96073 1.83337H12.1482ZM11.0815 4.23996C10.4777 4.22503 9.97604 4.70247 9.96102 5.30634C9.94615 5.91022 10.4236 6.41186 11.0275 6.42679L11.0815 4.23996ZM18.9118 13.7815L17.8182 13.7569C17.8181 13.7652 17.8181 13.7733 17.8181 13.7815H18.9118ZM18.9118 17.1605H17.8181C17.8181 17.7423 18.2737 18.2224 18.8548 18.2528L18.9118 17.1605ZM18.9118 21.6667V22.7605C18.9308 22.7605 18.9498 22.76 18.9689 22.759L18.9118 21.6667ZM14.3718 20.573C13.7677 20.573 13.278 21.0627 13.278 21.6667C13.278 22.2708 13.7677 22.7605 14.3718 22.7605V20.573ZM8.8295 21.6706C8.83169 21.0666 8.34379 20.5751 7.73973 20.573C7.13567 20.5708 6.64425 21.0587 6.64209 21.6628L8.8295 21.6706ZM8.707 24.1459L9.50529 23.3982L9.5034 23.3963L8.707 24.1459ZM13.3992 24.1459L12.6026 23.3963L12.6009 23.3982L13.3992 24.1459ZM15.464 21.6628C15.4619 21.0587 14.9704 20.5708 14.3664 20.573C13.7623 20.5751 13.2744 21.0666 13.2765 21.6706L15.464 21.6628ZM7.73441 20.573C7.13034 20.573 6.64066 21.0627 6.64066 21.6667C6.64066 22.2708 7.13034 22.7605 7.73441 22.7605V20.573ZM14.3718 22.7605C14.9758 22.7605 15.4655 22.2708 15.4655 21.6667C15.4655 21.0627 14.9758 20.573 14.3718 20.573V22.7605ZM11.0275 4.23996C5.95542 4.36536 1.98824 8.67195 2.10372 13.8061L4.29067 13.7569C4.20113 9.77639 7.26697 6.5211 11.0815 6.42679L11.0275 4.23996ZM2.10345 13.7815V17.1605H4.29095V13.7815H2.10345ZM3.14018 16.0682C1.36531 16.1609 0.015625 17.6545 0.015625 19.4136H2.20313C2.20313 18.7699 2.68939 18.2822 3.25422 18.2528L3.14018 16.0682ZM0.015625 19.4136C0.015625 21.1726 1.36531 22.6663 3.14018 22.759L3.25422 20.5744C2.68938 20.545 2.20313 20.0573 2.20313 19.4136H0.015625ZM3.1972 22.7605H7.73725V20.573H3.1972V22.7605ZM12.1482 5.33337V1.83337H9.96073V5.33337H12.1482ZM11.0275 6.42679C14.8421 6.5211 17.9078 9.77639 17.8182 13.7569L20.0053 13.8061C20.1208 8.67195 16.1535 4.36536 11.0815 4.23996L11.0275 6.42679ZM17.8181 13.7815V17.1605H20.0056V13.7815H17.8181ZM18.8548 18.2528C19.4196 18.2822 19.9058 18.7699 19.9058 19.4136H22.0933C22.0933 17.6545 20.7436 16.1609 18.9689 16.0682L18.8548 18.2528ZM19.9058 19.4136C19.9058 20.0573 19.4196 20.545 18.8548 20.5744L18.9689 22.759C20.7436 22.6663 22.0933 21.1726 22.0933 19.4136H19.9058ZM18.9118 20.573H14.3718V22.7605H18.9118V20.573ZM6.64209 21.6628C6.6378 22.8636 7.09 24.0237 7.91047 24.8955L9.5034 23.3963C9.07188 22.9376 8.82731 22.319 8.8295 21.6706L6.64209 21.6628ZM7.90869 24.8936C8.72581 25.7659 9.86054 26.2647 11.053 26.2647V24.0772C10.4746 24.0772 9.91508 23.8357 9.50529 23.3982L7.90869 24.8936ZM11.053 26.2647C12.2456 26.2647 13.3804 25.7659 14.1975 24.8936L12.6009 23.3982C12.1911 23.8357 11.6314 24.0772 11.053 24.0772V26.2647ZM14.1956 24.8955C15.0162 24.0237 15.4683 22.8636 15.464 21.6628L13.2765 21.6706C13.2789 22.319 13.0343 22.9376 12.6026 23.3963L14.1956 24.8955ZM7.73441 22.7605H14.3718V20.573H7.73441V22.7605Z" fill="#444444"/>
</svg>
