<svg width="765" height="832" viewBox="0 0 765 832" fill="none" xmlns="http://www.w3.org/2000/svg">
<path fill-rule="evenodd" clip-rule="evenodd" d="M559.125 263.76C585.639 290.971 622.31 308.238 640.336 341.681C661.34 380.65 674.751 425.418 669.98 469.43C664.854 516.712 653.679 574.212 612.541 598.08C568.714 623.508 512.872 596.595 462.673 589.707C427.653 584.901 396.184 569.1 361.267 563.599C326.616 558.139 292.453 560.76 257.537 557.388C199.447 551.778 114.262 587.981 85.8577 537.001C57.1846 485.538 155.103 436.731 157.516 377.869C159.532 328.707 83.1492 291.849 97.8367 244.889C112.042 199.472 176.034 192.168 220.717 175.799C255.747 162.966 295.68 174.272 330.071 159.814C369.447 143.261 391.565 76.8874 433.188 86.4779C476.613 96.4837 475.843 163.02 501.65 199.349C518.526 223.105 538.789 242.889 559.125 263.76Z" fill="#FFC60B"/>
<path fill-rule="evenodd" clip-rule="evenodd" d="M569.981 255.895C597.867 284.515 636.437 302.676 655.396 337.851C677.487 378.837 691.592 425.923 686.574 472.213C681.184 521.943 669.43 582.421 626.163 607.524C580.066 634.268 521.333 605.962 468.535 598.717C431.702 593.663 398.603 577.043 361.879 571.257C325.434 565.515 289.502 568.271 252.779 564.725C191.681 558.825 102.086 596.903 72.2111 543.283C42.0535 489.156 145.041 437.822 147.58 375.912C149.7 324.205 69.3624 285.439 84.8103 236.048C99.7507 188.279 167.056 180.597 214.053 163.38C250.896 149.883 292.897 161.774 329.068 146.568C370.483 129.158 393.746 59.3478 437.523 69.4349C483.197 79.9587 482.387 149.94 509.53 188.149C527.28 213.136 548.592 233.943 569.981 255.895Z" stroke="black" stroke-width="2"/>
</svg>
